<?xml version="1.0" encoding="utf-8"?>
<!-- Generator: Adobe Illustrator 17.0.0, SVG Export Plug-In . SVG Version: 6.00 Build 0)  -->
<!DOCTYPE svg PUBLIC "-//W3C//DTD SVG 1.1//EN" "http://www.w3.org/Graphics/SVG/1.1/DTD/svg11.dtd">
<svg version="1.1" id="圖層_1" xmlns="http://www.w3.org/2000/svg" xmlns:xlink="http://www.w3.org/1999/xlink" x="0px" y="0px"
	 width="789.868px" height="256.834px" viewBox="0 0 789.868 256.834" enable-background="new 0 0 789.868 256.834"
	 xml:space="preserve">
<g enable-background="new    ">
	<path d="M13.123,522.169v-8.412h34.644v8.412l-10.797,1.855v33.318h46.766v-33.319l-10.797-1.855v-8.412h10.797h13.049h10.797
		v8.412l-10.797,1.855v75.978l10.797,1.854v8.347H72.938v-8.347l10.797-1.854v-32.392H36.969v32.392l10.797,1.854v8.347H13.122
		v-8.347l10.797-1.854v-75.978L13.123,522.169z"/>
	<path d="M187.137,542.24h-9.87l-2.451-13.778c-1.987-1.678-4.637-3.068-7.949-4.173c-3.312-1.104-7.154-1.656-11.526-1.656
		c-6.934,0-12.254,1.469-15.964,4.405c-3.709,2.938-5.564,6.768-5.564,11.493c0,4.195,1.888,7.695,5.664,10.499
		c3.776,2.805,9.88,5.266,18.316,7.386c10.156,2.517,17.874,6.227,23.151,11.128c5.276,4.902,7.916,10.975,7.916,18.217
		c0,7.772-3.169,14.021-9.505,18.746c-6.337,4.726-14.629,7.087-24.873,7.087c-7.419,0-14.01-1.215-19.773-3.643
		c-5.763-2.429-10.456-5.607-14.076-9.539V580.46h9.804l2.517,13.845c2.517,2.076,5.52,3.775,9.009,5.101
		c3.488,1.324,7.661,1.987,12.52,1.987c6.579,0,11.779-1.392,15.6-4.174c3.819-2.782,5.729-6.558,5.729-11.327
		c0-4.415-1.656-8.114-4.968-11.095c-3.312-2.981-9.164-5.487-17.554-7.519c-10.201-2.428-18.173-6.005-23.913-10.731
		c-5.741-4.725-8.611-10.664-8.611-17.818c0-7.552,3.201-13.833,9.605-18.846c6.403-5.011,14.727-7.518,24.973-7.518
		c6.757,0,12.906,1.159,18.448,3.478c5.542,2.318,9.991,5.134,13.347,8.445v17.951L187.137,542.24L187.137,542.24z"/>
	<path d="M233.836,513.757v8.412l-10.797,1.855v55.112c0,7.286,2.075,12.817,6.227,16.593c4.15,3.775,9.626,5.664,16.427,5.664
		c7.154,0,12.917-1.877,17.289-5.631c4.372-3.753,6.558-9.296,6.558-16.626v-55.113l-10.797-1.855v-8.412h23.846h10.797v8.412
		l-10.797,1.855v55.112c0,10.466-3.411,18.492-10.234,24.078c-6.823,5.587-15.71,8.379-26.662,8.379
		c-10.643,0-19.254-2.792-25.833-8.379c-6.581-5.586-9.87-13.612-9.87-24.078v-55.112l-10.797-1.855v-8.412h10.797
		C209.99,513.756,233.836,513.756,233.836,513.757z"/>
	<path d="M301.998,610.202v-8.347l10.797-1.854v-75.978l-10.797-1.855v-8.412h10.797h13.049h10.798v8.412l-10.797,1.855v75.978
		h33.518l0.994-11.062h11.128v21.264L301.998,610.202L301.998,610.202z"/>
	<path d="M381.421,610.202v-8.347l10.797-1.854v-75.978l-10.797-1.855v-8.412h74.057v23.185h-11.195l-1.06-12.917h-37.955v31.199
		h36.896v10.268h-36.896v34.511h38.751l1.06-12.917h11.128v23.118L381.421,610.202L381.421,610.202z"/>
	<path d="M467.864,522.169v-8.412h34.644v8.412l-10.797,1.855v75.978l10.797,1.854v8.347h-34.644v-8.347l10.797-1.854v-75.979
		L467.864,522.169z"/>
	<path d="M589.813,513.757c10.289,0,18.293,2.649,24.013,7.949c5.719,5.299,8.578,12.277,8.578,20.932
		c0,8.744-2.859,15.743-8.578,20.998c-5.72,5.256-13.724,7.883-24.013,7.883h-20.468v28.483l10.797,1.854v8.347h-34.644v-8.347
		l10.797-1.854v-75.979l-10.797-1.855v-8.412h10.797C556.295,513.756,589.813,513.756,589.813,513.757z M569.345,561.316h20.468
		c6.535,0,11.427-1.755,14.673-5.266c3.246-3.511,4.868-7.938,4.868-13.281c0-5.343-1.622-9.804-4.868-13.381
		c-3.246-3.577-8.138-5.365-14.673-5.365h-20.468V561.316z"/>
	<path d="M717.592,562.708c0,14.043-4.03,25.701-12.089,34.975c-8.06,9.273-18.493,13.91-31.299,13.91
		c-12.453,0-22.566-4.637-30.338-13.91c-7.773-9.273-11.658-20.932-11.658-34.975v-1.392c0-13.998,3.885-25.656,11.658-34.975
		c7.771-9.317,17.885-13.977,30.338-13.977c12.807,0,23.239,4.659,31.299,13.977c8.059,9.318,12.089,20.977,12.089,34.975V562.708z
		 M704.542,561.185c0-11.217-2.683-20.369-8.048-27.457s-12.796-10.632-22.29-10.632c-9.098,0-16.195,3.556-21.296,10.665
		c-5.101,7.11-7.651,16.252-7.651,27.424v1.523c0,11.305,2.551,20.501,7.651,27.589c5.1,7.088,12.198,10.632,21.296,10.632
		c9.627,0,17.09-3.533,22.39-10.599c5.299-7.065,7.948-16.272,7.948-27.622L704.542,561.185L704.542,561.185z"/>
	<path d="M769.724,513.823c10.509,0,18.568,2.33,24.178,6.988c5.607,4.659,8.412,11.272,8.412,19.839
		c0,4.682-1.303,8.833-3.908,12.453c-2.606,3.622-6.337,6.47-11.194,8.545c5.255,1.723,9.042,4.527,11.36,8.413
		c2.318,3.887,3.478,8.678,3.478,14.374v7.75c0,2.959,0.374,5.146,1.126,6.558c0.75,1.414,1.987,2.253,3.709,2.518l3.18,0.397v8.545
		h-7.021c-5.078,0-8.688-1.766-10.83-5.299c-2.143-3.533-3.213-7.816-3.213-12.852v-7.484c0-5.255-1.523-9.473-4.57-12.652
		s-7.133-4.77-12.255-4.77h-20.933v32.855l10.797,1.854v8.347h-34.644v-8.347l10.797-1.854v-75.978l-10.797-1.855v-8.346h10.797
		C738.193,513.822,769.724,513.822,769.724,513.823z M751.243,556.88h17.156c7.286,0,12.586-1.392,15.897-4.174
		c3.312-2.782,4.969-6.845,4.969-12.188c0-5.077-1.59-9.097-4.77-12.056c-3.18-2.958-8.104-4.438-14.771-4.438h-18.481
		L751.243,556.88L751.243,556.88z"/>
	<path d="M891.804,513.757v21.329h-11.128l-0.994-11.062h-21.396v75.978l10.798,1.854v8.347h-34.645v-8.347l10.798-1.854v-75.979
		h-21.462l-0.928,11.062h-11.194v-21.328H891.804z"/>
	<path d="M898.959,601.855l10.797-1.854v-75.978l-10.797-1.855v-8.412h74.521v23.185h-11.128l-1.061-12.917h-38.485v33.253h37.293
		v10.267h-37.293v32.458l10.797,1.854v8.347H898.96L898.959,601.855L898.959,601.855z"/>
	<path d="M1065.885,562.708c0,14.043-4.03,25.701-12.089,34.975c-8.06,9.273-18.492,13.91-31.299,13.91
		c-12.453,0-22.566-4.637-30.338-13.91c-7.773-9.273-11.658-20.932-11.658-34.975v-1.392c0-13.998,3.885-25.656,11.658-34.975
		c7.771-9.317,17.885-13.977,30.338-13.977c12.807,0,23.239,4.659,31.299,13.977c8.059,9.318,12.089,20.977,12.089,34.975V562.708z
		 M1052.835,561.185c0-11.217-2.683-20.369-8.048-27.457s-12.796-10.632-22.29-10.632c-9.098,0-16.195,3.556-21.296,10.665
		c-5.101,7.11-7.651,16.252-7.651,27.424v1.523c0,11.305,2.551,20.501,7.651,27.589c5.1,7.088,12.198,10.632,21.296,10.632
		c9.627,0,17.09-3.533,22.39-10.599c5.299-7.065,7.948-16.272,7.948-27.622V561.185L1052.835,561.185z"/>
	<path d="M1075.689,610.202v-8.347l10.797-1.854v-75.978l-10.797-1.855v-8.412h10.797h13.05h10.797v8.412l-10.797,1.855v75.978
		h33.518l0.993-11.062h11.129v21.264L1075.689,610.202L1075.689,610.202z"/>
	<path d="M1155.044,522.169v-8.412h34.644v8.412l-10.797,1.855v75.978l10.797,1.854v8.347h-34.644v-8.347l10.797-1.854v-75.979
		L1155.044,522.169z"/>
	<path d="M1284.877,562.708c0,14.043-4.03,25.701-12.089,34.975c-8.06,9.273-18.492,13.91-31.299,13.91
		c-12.453,0-22.566-4.637-30.338-13.91c-7.773-9.273-11.658-20.932-11.658-34.975v-1.392c0-13.998,3.885-25.656,11.658-34.975
		c7.771-9.317,17.885-13.977,30.338-13.977c12.807,0,23.239,4.659,31.299,13.977c8.059,9.318,12.089,20.977,12.089,34.975V562.708z
		 M1271.828,561.185c0-11.217-2.683-20.369-8.048-27.457s-12.796-10.632-22.29-10.632c-9.098,0-16.195,3.556-21.296,10.665
		c-5.101,7.11-7.651,16.252-7.651,27.424v1.523c0,11.305,2.551,20.501,7.651,27.589c5.1,7.088,12.198,10.632,21.296,10.632
		c9.627,0,17.09-3.533,22.39-10.599c5.299-7.065,7.948-16.272,7.948-27.622V561.185L1271.828,561.185z"/>
</g>
<text transform="matrix(1 0 0 1 -127.6161 -212.3328)" font-family="'RobotoSlab-Bold'" font-size="107.7124">HSU LEI</text>
<text transform="matrix(1 0 0 1 -127.6161 -98.5)" font-family="'RobotoSlab-Bold'" font-size="107.7124">PORTFOLIO</text>
<g>
	<g>
		<path d="M9.129,20.835V8.95h40.725v11.886l-10.536,2.027v28.366h40.117V22.862l-10.536-2.027V8.95h10.536h19.654h10.536v11.886
			l-10.536,2.027v70.577l10.536,2.025v11.819H68.899V95.464l10.536-2.025V66.423H39.317v27.015l10.536,2.025v11.819H9.129V95.464
			l10.468-2.025V22.862L9.129,20.835z"/>
		<path d="M191.952,40.354h-14.791l-2.566-13.507c-1.712-1.081-4.211-2.027-7.497-2.837c-3.287-0.811-6.777-1.216-10.469-1.216
			c-5.403,0-9.58,1.137-12.528,3.411c-2.949,2.274-4.424,5.212-4.424,8.813c0,3.333,1.542,6.068,4.627,8.206
			c3.083,2.138,8.408,4.402,15.973,6.787c10.85,3.017,19.079,7.002,24.685,11.955c5.605,4.953,8.408,11.459,8.408,19.518
			c0,8.421-3.333,15.061-9.996,19.924c-6.664,4.862-15.443,7.293-26.34,7.293c-7.789,0-14.824-1.239-21.105-3.714
			c-6.281-2.475-11.515-5.898-15.702-10.265V74.19h15.263l2.094,13.98c1.981,1.62,4.671,2.961,8.071,4.018
			c3.399,1.058,7.192,1.588,11.38,1.588c5.403,0,9.511-1.102,12.326-3.309c2.813-2.206,4.221-5.155,4.221-8.847
			c0-3.782-1.34-6.822-4.019-9.118c-2.679-2.296-7.373-4.457-14.081-6.483c-11.662-3.377-20.487-7.384-26.474-12.021
			c-5.989-4.637-8.983-10.985-8.983-19.046c0-7.969,3.377-14.487,10.131-19.552c6.754-5.065,15.24-7.666,25.462-7.8
			c7.564,0,14.453,1.147,20.666,3.444c6.214,2.296,11.436,5.358,15.669,9.186V40.354z"/>
		<path d="M240.713,8.95v11.886l-10.536,2.027V74.19c0,6.483,1.744,11.335,5.234,14.554c3.489,3.219,8.273,4.828,14.352,4.828
			c6.168,0,11.008-1.598,14.52-4.794c3.512-3.197,5.268-8.06,5.268-14.588V22.862l-10.469-2.027V8.95h40.725v11.886l-10.536,2.027
			V74.19c0,11.032-3.637,19.541-10.908,25.528c-7.272,5.989-16.806,8.983-28.602,8.983c-11.751,0-21.241-2.993-28.467-8.983
			c-7.226-5.987-10.84-14.497-10.84-25.528V22.862l-10.468-2.027V8.95h10.468h19.721H240.713z"/>
		<path d="M339.52,107.283V95.464l10.468-2.025V22.862l-10.468-2.027V8.95h10.468h19.721h10.536v11.886l-10.536,2.027v69.292h27.758
			l0.946-12.358h15.061v27.487H339.52z"/>
		<path d="M484.05,64.059h-33.296v28.095h31.743l0.878-11.751h14.994v26.88h-77.803V95.464l10.468-2.025V22.862l-10.468-2.027V8.95
			h10.468h67.2v26.947h-15.128l-0.878-11.751h-31.472v24.719h33.296V64.059z"/>
		<path d="M508.836,20.835V8.95h40.725v11.886l-10.536,2.027v70.577l10.536,2.025v11.819h-40.725V95.464l10.536-2.025V22.862
			L508.836,20.835z"/>
	</g>
	<g>
		<path d="M55.932,149.484c11.256,0,20.137,2.893,26.643,8.678c6.506,5.786,9.759,13.362,9.759,22.727
			c0,9.41-3.254,16.975-9.759,22.692c-6.507,5.72-15.388,8.578-26.643,8.578H39.317v21.815l10.536,2.025v11.819H9.129v-11.819
			l10.468-2.025v-70.577l-10.468-2.027v-11.886h10.468H55.932z M39.317,196.962h16.615c5.493,0,9.646-1.497,12.46-4.492
			c2.813-2.993,4.222-6.809,4.222-11.448c0-4.726-1.408-8.633-4.222-11.718c-2.814-3.082-6.967-4.626-12.46-4.626H39.317V196.962z"
			/>
		<path d="M188.507,199.393c0,14.409-4.119,26.318-12.359,35.727c-8.24,9.411-19.024,14.115-32.351,14.115
			c-13.283,0-24.009-4.704-32.181-14.115c-8.172-9.409-12.258-21.318-12.258-35.727v-1.485c0-14.318,4.074-26.205,12.224-35.661
			c8.149-9.454,18.865-14.182,32.148-14.182c13.327,0,24.121,4.728,32.384,14.182c8.262,9.455,12.393,21.342,12.393,35.661V199.393z
			 M168.854,197.772c0-10.175-2.117-18.438-6.348-24.786c-4.233-6.349-10.492-9.523-18.775-9.523
			c-8.285,0-14.465,3.151-18.539,9.455c-4.076,6.304-6.112,14.588-6.112,24.854v1.62c0,10.357,2.06,18.698,6.179,25.023
			c4.12,6.327,10.3,9.489,18.539,9.489c8.329,0,14.588-3.163,18.776-9.489c4.187-6.325,6.281-14.666,6.281-25.023V197.772z"/>
		<path d="M240.578,149.484c11.166,0,19.923,2.556,26.272,7.665c6.349,5.111,9.522,12.169,9.522,21.173
			c0,4.953-1.329,9.253-3.985,12.9c-2.657,3.647-6.551,6.596-11.684,8.847c5.808,1.712,9.984,4.558,12.528,8.544
			c2.543,3.984,3.815,8.926,3.815,14.824v4.999c0,2.161,0.428,3.839,1.284,5.031c0.855,1.194,2.273,1.902,4.255,2.127l2.432,0.339
			v11.886h-10.198c-6.439,0-10.964-1.732-13.575-5.2c-2.612-3.466-3.918-7.946-3.918-13.439v-5.605c0-4.772-1.272-8.52-3.815-11.245
			c-2.544-2.724-6.135-4.153-10.772-4.289h-16.142v25.935l10.536,2.025v11.819h-40.725v-11.819l10.468-2.025v-70.577l-10.468-2.027
			v-11.886h10.468H240.578z M226.597,192.842h13.643c5.493,0,9.613-1.17,12.36-3.511c2.746-2.341,4.119-5.717,4.119-10.131
			c0-4.412-1.362-7.935-4.086-10.569c-2.724-2.635-6.743-3.951-12.055-3.951h-13.981V192.842z"/>
		<path d="M374.707,149.484v26.204h-15.128l-0.811-11.009h-18.1v69.294l10.536,2.025v11.819h-40.792v-11.819l10.536-2.025v-69.294
			h-18.032l-0.811,11.009h-15.061v-26.204H374.707z"/>
		<path d="M381.123,235.998l10.468-2.025v-70.577l-10.468-2.027v-11.886h78.276v26.947H444.27l-0.878-11.751h-32.081v27.083h34.444
			v15.195h-34.444v27.015l10.536,2.025v11.819h-40.724V235.998z"/>
		<path d="M553.747,199.393c0,14.409-4.12,26.318-12.359,35.727c-8.24,9.411-19.024,14.115-32.351,14.115
			c-13.283,0-24.009-4.704-32.181-14.115c-8.172-9.409-12.258-21.318-12.258-35.727v-1.485c0-14.318,4.074-26.205,12.224-35.661
			c8.149-9.454,18.865-14.182,32.148-14.182c13.327,0,24.121,4.728,32.384,14.182c8.262,9.455,12.393,21.342,12.393,35.661V199.393z
			 M534.094,197.772c0-10.175-2.117-18.438-6.348-24.786c-4.233-6.349-10.492-9.523-18.775-9.523
			c-8.285,0-14.465,3.151-18.539,9.455c-4.076,6.304-6.112,14.588-6.112,24.854v1.62c0,10.357,2.06,18.698,6.179,25.023
			c4.12,6.327,10.3,9.489,18.539,9.489c8.329,0,14.588-3.163,18.776-9.489c4.187-6.325,6.281-14.666,6.281-25.023V197.772z"/>
		<path d="M561.649,247.817v-11.819l10.468-2.025v-70.577l-10.468-2.027v-11.886h10.468h19.721h10.536v11.886l-10.536,2.027v69.292
			h27.758l0.946-12.358h15.061v27.487H561.649z"/>
		<path d="M642.626,161.369v-11.886h40.725v11.886l-10.536,2.027v70.577l10.536,2.025v11.819h-40.725v-11.819l10.536-2.025v-70.577
			L642.626,161.369z"/>
		<path d="M780.74,199.393c0,14.409-4.12,26.318-12.359,35.727c-8.24,9.411-19.024,14.115-32.351,14.115
			c-13.283,0-24.009-4.704-32.181-14.115c-8.172-9.409-12.258-21.318-12.258-35.727v-1.485c0-14.318,4.074-26.205,12.224-35.661
			c8.149-9.454,18.865-14.182,32.148-14.182c13.327,0,24.121,4.728,32.384,14.182c8.262,9.455,12.393,21.342,12.393,35.661V199.393z
			 M761.087,197.772c0-10.175-2.117-18.438-6.349-24.786c-4.233-6.349-10.492-9.523-18.775-9.523
			c-8.285,0-14.465,3.151-18.539,9.455c-4.076,6.304-6.112,14.588-6.112,24.854v1.62c0,10.357,2.06,18.698,6.179,25.023
			c4.12,6.327,10.3,9.489,18.539,9.489c8.329,0,14.588-3.163,18.776-9.489c4.187-6.325,6.281-14.666,6.281-25.023V197.772z"/>
	</g>
</g>
</svg>
