<?xml version="1.0" encoding="utf-8"?>
<!-- Generator: Adobe Illustrator 17.0.0, SVG Export Plug-In . SVG Version: 6.00 Build 0)  -->
<!DOCTYPE svg PUBLIC "-//W3C//DTD SVG 1.1//EN" "http://www.w3.org/Graphics/SVG/1.1/DTD/svg11.dtd">
<svg version="1.1" id="圖層_1" xmlns="http://www.w3.org/2000/svg" xmlns:xlink="http://www.w3.org/1999/xlink" x="0px" y="0px"
	 width="819.252px" height="111.453px" viewBox="-36.88 78.295 819.252 111.453"
	 enable-background="new -36.88 78.295 819.252 111.453" xml:space="preserve">
<g>
	<path d="M6.308,94.211l-9.804,1.524L8.891,148.86l1.789,12.056l0.397,0.065l2.583-12.121l17.752-63.062h11.526l17.819,63.062
		l2.65,12.387h0.397l1.921-12.387l12.122-53.125l-9.87-1.524v-8.412h30.669v8.412l-7.75,0.994l-20.999,87.04H58.239l-19.077-66.903
		l-1.722-8.677h-0.397l-1.656,8.677l-19.342,66.903H4.453l-20.999-87.04l-7.75-0.994v-8.412H6.307L6.308,94.211L6.308,94.211z"/>
	<path d="M109.377,182.244v-8.347l10.797-1.854V96.065l-10.797-1.855v-8.412h74.057v23.185h-11.195l-1.06-12.917h-37.956v31.199
		h36.896v10.268h-36.896v34.511h38.75l1.06-12.917h11.128v23.118L109.377,182.244L109.377,182.244z"/>
	<path d="M237.152,85.799c10.069,0,17.94,2.176,23.615,6.524c5.674,4.351,8.512,10.875,8.512,19.574
		c0,4.284-1.358,8.114-4.074,11.493c-2.716,3.378-6.304,5.885-10.764,7.518c5.785,1.237,10.355,4.086,13.712,8.546
		c3.355,4.461,5.034,9.649,5.034,15.566c0,8.832-2.871,15.578-8.611,20.236c-5.741,4.659-13.513,6.988-23.317,6.988h-46.368v-8.347
		l10.797-1.854V96.066l-10.797-1.855v-8.412h10.797C205.688,85.799,237.152,85.799,237.152,85.799z M218.738,126.802h21.793
		c4.68-0.133,8.467-1.523,11.36-4.173c2.892-2.65,4.339-6.314,4.339-10.996c0-5.21-1.634-9.108-4.902-11.691
		c-3.269-2.584-7.994-3.875-14.176-3.875h-18.415L218.738,126.802L218.738,126.802z M218.738,137.003v35.041h22.521
		c5.962,0,10.587-1.468,13.877-4.405c3.29-2.936,4.935-7.098,4.935-12.486c0-5.651-1.381-10.09-4.14-13.314
		c-2.76-3.223-6.988-4.835-12.685-4.835h-24.508V137.003z"/>
	<path d="M324.325,85.798c12.585,0,22.709,3.875,30.371,11.625c7.661,7.75,11.493,17.764,11.493,30.04v13.183
		c0,12.32-3.832,22.334-11.493,30.04c-7.662,7.706-17.786,11.559-30.371,11.559h-40.407v-8.347l10.797-1.854V96.066l-10.797-1.855
		v-8.412h10.797h29.61V85.798z M307.765,96.065v75.978h16.56c8.919,0,15.953-2.937,21.098-8.81
		c5.144-5.873,7.717-13.402,7.717-22.588v-13.314c0-9.097-2.573-16.582-7.717-22.456c-5.145-5.872-12.178-8.81-21.098-8.81
		L307.765,96.065L307.765,96.065z"/>
	<path d="M376.919,182.244v-8.347l10.797-1.854V96.065l-10.797-1.855v-8.412h74.057v23.185h-11.195l-1.06-12.917h-37.956v31.199
		h36.896v10.268h-36.896v34.511h38.75l1.06-12.917h11.128v23.118h-74.784V182.244z"/>
	<path d="M528.938,114.282h-9.87l-2.451-13.778c-1.987-1.678-4.637-3.068-7.949-4.173c-3.312-1.104-7.154-1.656-11.526-1.656
		c-6.934,0-12.254,1.469-15.964,4.405c-3.709,2.938-5.564,6.768-5.564,11.493c0,4.195,1.888,7.695,5.664,10.499
		c3.776,2.805,9.88,5.266,18.316,7.386c10.156,2.517,17.874,6.227,23.151,11.128c5.276,4.902,7.916,10.975,7.916,18.217
		c0,7.772-3.169,14.021-9.505,18.746c-6.337,4.726-14.629,7.087-24.873,7.087c-7.419,0-14.01-1.215-19.773-3.643
		c-5.763-2.429-10.456-5.607-14.076-9.539v-17.951h9.804l2.517,13.845c2.517,2.076,5.52,3.775,9.009,5.101
		c3.488,1.324,7.661,1.987,12.52,1.987c6.579,0,11.779-1.392,15.6-4.174c3.819-2.782,5.729-6.558,5.729-11.327
		c0-4.415-1.656-8.114-4.968-11.095c-3.312-2.981-9.164-5.487-17.554-7.519c-10.201-2.428-18.173-6.005-23.913-10.731
		c-5.741-4.725-8.611-10.664-8.611-17.818c0-7.552,3.201-13.833,9.605-18.846c6.403-5.011,14.727-7.518,24.973-7.518
		c6.757,0,12.906,1.159,18.448,3.478c5.542,2.318,9.991,5.134,13.347,8.445v17.951H528.938z"/>
	<path d="M541.391,94.211v-8.412h34.644v8.412l-10.797,1.855v75.978l10.797,1.854v8.347h-34.644v-8.347l10.797-1.854V96.066
		L541.391,94.211z"/>
	<path d="M664.598,171.316c-2.827,2.959-7,5.753-12.52,8.38c-5.521,2.626-12.697,3.94-21.528,3.94
		c-12.895,0-23.416-4.525-31.563-13.579c-8.148-9.052-12.222-20.8-12.222-35.24v-1.589c0-14.529,4.029-26.298,12.089-35.307
		c8.059-9.009,18.779-13.513,32.16-13.513c7.154,0,13.435,1.115,18.845,3.345c5.409,2.23,9.969,5.178,13.679,8.843v17.488h-9.141
		l-3.18-13.314c-2.164-1.766-4.781-3.224-7.85-4.372c-3.07-1.148-6.746-1.723-11.029-1.723c-10.422,0-18.448,3.567-24.079,10.698
		c-5.63,7.132-8.446,16.373-8.446,27.722v1.722c0,11.526,2.727,20.845,8.181,27.954c5.453,7.11,12.972,10.665,22.555,10.665
		c5.255,0,9.561-0.552,12.917-1.656c3.355-1.104,6.05-2.318,8.082-3.644v-21.131l-15.832-0.662v-9.604h28.881L664.598,171.316
		L664.598,171.316z"/>
	<path d="M769.787,85.799v8.412l-10.797,1.855v86.179h-13.049l-46.369-74.454l-0.396,0.132v64.121l10.797,1.854v8.347h-34.644
		v-8.347l10.797-1.854V96.066l-10.797-1.855v-8.412h10.797h13.05l46.367,74.388l0.398-0.132V96.067l-10.797-1.856v-8.412h23.846
		H769.787z"/>
</g>
</svg>
