<?xml version="1.0" encoding="utf-8"?>
<!-- Generator: Adobe Illustrator 17.0.0, SVG Export Plug-In . SVG Version: 6.00 Build 0)  -->
<!DOCTYPE svg PUBLIC "-//W3C//DTD SVG 1.1//EN" "http://www.w3.org/Graphics/SVG/1.1/DTD/svg11.dtd">
<svg version="1.1" id="圖層_1" xmlns="http://www.w3.org/2000/svg" xmlns:xlink="http://www.w3.org/1999/xlink" x="0px" y="0px"
	 width="604px" height="270px" viewBox="0 0 604 270" enable-background="new 0 0 604 270" xml:space="preserve">
<g>
	<g enable-background="new    ">
		<path d="M132.016,30.518l-7.67,0.959l-18.855,80.854H88.169L71.104,50.907H70.72L53.655,112.33H36.333L17.351,31.477l-7.606-0.959
			V19.269h34.259v11.249l-8.5,1.47l10.674,51.005l0.383,0.064l17.449-63.788h13.742l17.577,63.788l0.383-0.064l10.61-51.005
			l-8.501-1.47V19.269h34.195V30.518z"/>
		<path d="M197.593,71.424h-31.51v26.589h30.04l0.831-11.121h14.189v25.438h-73.631v-11.185l9.907-1.917V32.435l-9.907-1.917V19.269
			h9.907h63.596v25.502h-14.317l-0.831-11.122h-29.785v23.394h31.51V71.424z"/>
		<path d="M262.468,19.269c10.95,0,19.494,2.131,25.63,6.392c6.136,4.261,9.204,10.632,9.204,19.111
			c0,4.304-1.141,8.149-3.419,11.537c-2.28,3.388-5.593,5.935-9.939,7.638c5.582,1.193,9.768,3.75,12.56,7.67
			c2.79,3.921,4.187,8.459,4.187,13.614c0,8.907-2.94,15.649-8.821,20.229c-5.88,4.581-14.211,6.871-24.991,6.871h-45.764v-11.185
			l9.907-1.917V32.435l-9.907-1.917V19.269h9.907H262.468z M249.685,58.257h13.422c4.985,0,8.82-1.023,11.505-3.068
			c2.684-2.045,4.026-5.027,4.026-8.948c0-4.304-1.353-7.479-4.059-9.523c-2.707-2.045-6.743-3.068-12.112-3.068h-12.783V58.257z
			 M249.685,71.168v26.844h17.193c4.942,0,8.713-1.075,11.313-3.228c2.599-2.151,3.899-5.337,3.899-9.556
			c0-4.559-1.109-8.042-3.324-10.45c-2.216-2.407-5.71-3.611-10.482-3.611H249.685z"/>
		<path d="M378.348,48.989H364.35l-2.429-12.783c-1.62-1.022-3.984-1.917-7.095-2.684c-3.11-0.767-6.413-1.151-9.907-1.151
			c-5.113,0-9.065,1.077-11.855,3.228c-2.792,2.152-4.187,4.933-4.187,8.341c0,3.154,1.459,5.743,4.378,7.766
			c2.918,2.024,7.957,4.166,15.116,6.423c10.269,2.855,18.056,6.626,23.361,11.313c5.305,4.688,7.957,10.845,7.957,18.472
			c0,7.969-3.153,14.253-9.459,18.855c-6.307,4.602-14.616,6.903-24.928,6.903c-7.372,0-14.029-1.172-19.974-3.516
			c-5.944-2.343-10.897-5.582-14.86-9.715V81.011h14.445l1.981,13.23c1.874,1.534,4.42,2.802,7.638,3.803
			c3.217,1.001,6.807,1.502,10.77,1.502c5.113,0,9.001-1.043,11.665-3.132c2.662-2.087,3.994-4.878,3.994-8.373
			c0-3.579-1.268-6.456-3.803-8.628c-2.535-2.173-6.978-4.219-13.326-6.136c-11.037-3.196-19.389-6.988-25.056-11.377
			c-5.667-4.388-8.5-10.396-8.5-18.024c0-7.542,3.195-13.71,9.587-18.503c6.392-4.794,14.423-7.254,24.097-7.382
			c7.158,0,13.678,1.086,19.558,3.26c5.881,2.173,10.823,5.071,14.829,8.692V48.989z"/>
		<path d="M386.976,30.518V19.269h38.541v11.249l-9.971,1.917v66.792l9.971,1.917v11.185h-38.541v-11.185l9.971-1.917V32.435
			L386.976,30.518z"/>
		<path d="M514.552,19.269v24.799h-14.317l-0.767-10.418h-17.13v65.578l9.971,1.917v11.185h-38.604v-11.185l9.971-1.917V33.649
			H446.61l-0.768,10.418h-14.253V19.269H514.552z"/>
		<path d="M580.706,71.424h-31.511v26.589h30.041l0.831-11.121h14.188v25.438h-73.631v-11.185l9.907-1.917V32.435l-9.907-1.917
			V19.269h9.907h63.597v25.502h-14.317l-0.831-11.122h-29.785v23.394h31.511V71.424z"/>
	</g>
	<g enable-background="new    ">
		<path d="M53.335,157.606c11.377,0,20.75,3.633,28.123,10.897c7.371,7.266,11.057,16.586,11.057,27.963v15.404
			c0,11.42-3.686,20.74-11.057,27.963c-7.373,7.223-16.746,10.834-28.123,10.834H11.47v-11.186l9.907-1.917v-66.792l-9.907-1.918
			v-11.249h9.907H53.335z M40.041,171.987v64.363h12.335c6.689,0,11.931-2.258,15.724-6.774c3.792-4.517,5.688-10.419,5.688-17.705
			V196.34c0-7.201-1.896-13.061-5.688-17.577c-3.793-4.517-9.034-6.775-15.724-6.775H40.041z"/>
		<path d="M161.737,209.762h-31.51v26.589h30.04l0.831-11.121h14.189v25.438h-73.631v-11.186l9.907-1.917v-66.792l-9.907-1.918
			v-11.249h9.907h63.596v25.502h-14.317l-0.831-11.121h-29.785v23.394h31.51V209.762z"/>
		<path d="M255.949,187.327h-13.998l-2.429-12.783c-1.62-1.022-3.984-1.917-7.095-2.685c-3.111-0.767-6.414-1.15-9.907-1.15
			c-5.113,0-9.066,1.077-11.856,3.228c-2.792,2.152-4.187,4.933-4.187,8.342c0,3.153,1.459,5.742,4.378,7.766
			c2.918,2.024,7.958,4.165,15.116,6.423c10.268,2.855,18.056,6.627,23.361,11.313c5.305,4.688,7.958,10.845,7.958,18.472
			c0,7.969-3.154,14.253-9.459,18.855c-6.307,4.602-14.616,6.902-24.927,6.902c-7.372,0-14.029-1.172-19.974-3.515
			s-10.897-5.582-14.86-9.716v-19.43h14.445l1.981,13.23c1.875,1.533,4.42,2.802,7.638,3.803c3.217,1.002,6.807,1.502,10.77,1.502
			c5.113,0,9.001-1.044,11.665-3.132c2.662-2.087,3.995-4.879,3.995-8.373c0-3.579-1.269-6.455-3.803-8.629
			c-2.536-2.173-6.978-4.218-13.326-6.136c-11.037-3.195-19.389-6.987-25.055-11.377c-5.667-4.389-8.501-10.396-8.501-18.024
			c0-7.542,3.196-13.71,9.587-18.504c6.392-4.793,14.423-7.254,24.096-7.382c7.159,0,13.678,1.087,19.559,3.26
			s10.823,5.071,14.829,8.692V187.327z"/>
		<path d="M264.577,168.855v-11.249h38.542v11.249l-9.971,1.918v66.792l9.971,1.917v11.186h-38.542v-11.186l9.971-1.917v-66.792
			L264.577,168.855z"/>
		<path d="M387.36,240.313c-3.025,2.983-7.436,5.679-13.23,8.086c-5.795,2.406-13.125,3.61-21.987,3.61
			c-12.57,0-22.797-4.207-30.68-12.623c-7.883-8.415-11.824-19.355-11.824-32.82v-3.196c0-13.934,3.888-25.268,11.665-34.003
			c7.775-8.734,17.928-13.103,30.456-13.103c7.286,0,13.943,1.161,19.974,3.483c6.028,2.322,11.046,5.465,15.052,9.427v18.728
			h-13.806l-2.62-12.464c-1.705-1.447-3.953-2.609-6.743-3.483c-2.792-0.872-5.998-1.31-9.62-1.31
			c-8.139,0-14.467,3.004-18.982,9.012c-4.518,6.008-6.775,13.87-6.775,23.585v3.324c0,9.459,2.215,17.012,6.647,22.658
			c4.431,5.646,10.822,8.469,19.175,8.469c3.749,0,6.785-0.32,9.107-0.959c2.322-0.64,4.144-1.384,5.465-2.237V218.71l-13.294-1.022
			v-13.103h32.021V240.313z"/>
		<path d="M491.799,157.606v11.249l-9.972,1.918v79.895h-18.599l-37.583-62.638l-0.384,0.064v49.471l9.971,1.917v11.186h-38.541
			v-11.186l9.907-1.917v-66.792l-9.907-1.918v-11.249h9.907h18.663l37.583,62.638l0.384-0.064v-49.406l-9.972-1.918v-11.249h28.57
			H491.799z"/>
	</g>
</g>
<text transform="matrix(1 0 0 1 -315.6162 -193.4961)" font-family="'RobotoSlab-Bold'" font-size="130.8998">WEBSITE</text>
<text transform="matrix(1 0 0 1 -315.6162 -55.1581)" font-family="'RobotoSlab-Bold'" font-size="130.8998">DESIGN</text>
</svg>
