<?xml version="1.0" encoding="utf-8"?>
<!-- Generator: Adobe Illustrator 17.0.0, SVG Export Plug-In . SVG Version: 6.00 Build 0)  -->
<!DOCTYPE svg PUBLIC "-//W3C//DTD SVG 1.1//EN" "http://www.w3.org/Graphics/SVG/1.1/DTD/svg11.dtd">
<svg version="1.1" id="圖層_1" xmlns="http://www.w3.org/2000/svg" xmlns:xlink="http://www.w3.org/1999/xlink" x="0px" y="0px"
	 width="601.543px" height="419.616px" viewBox="-3.558 -2.381 601.543 419.616"
	 enable-background="new -3.558 -2.381 601.543 419.616" xml:space="preserve">
<g>
	<path fill="none" stroke="#FFFFFF" stroke-width="20" stroke-miterlimit="10" d="M299.494,407.235H59.724
		c-50.618,0-53.282-41.294-53.282-41.294V52.909c0-41.294,61.274-45.29,61.274-45.29h229.113"/>
	<path fill="none" stroke="#FFFFFF" stroke-width="20" stroke-miterlimit="10" d="M23.683,20.683l224.66,222.489
		c0,0,21.227,19.838,50.037,22.72"/>
	
		<line fill="none" stroke="#FFFFFF" stroke-width="20" stroke-miterlimit="10" x1="211.441" y1="207.357" x2="23.141" y2="395.659"/>
	<path fill="none" stroke="#FFFFFF" stroke-width="20" stroke-miterlimit="10" d="M294.934,407.235h239.769
		c50.618,0,53.282-41.294,53.282-41.294V52.909c0-41.294-61.274-45.29-61.274-45.29H284.4"/>
	
		<line fill="none" stroke="#FFFFFF" stroke-width="20" stroke-miterlimit="10" x1="382.986" y1="207.357" x2="571.286" y2="395.659"/>
	<path fill="none" stroke="#FFFFFF" stroke-width="20" stroke-miterlimit="10" d="M296.528,265.892
		c28.81-2.882,50.037-22.72,50.037-22.72l224.66-222.489"/>
</g>
</svg>
