<?xml version="1.0" encoding="utf-8"?>
<!-- Generator: Adobe Illustrator 17.0.0, SVG Export Plug-In . SVG Version: 6.00 Build 0)  -->
<!DOCTYPE svg PUBLIC "-//W3C//DTD SVG 1.1//EN" "http://www.w3.org/Graphics/SVG/1.1/DTD/svg11.dtd">
<svg version="1.1" id="圖層_1" xmlns="http://www.w3.org/2000/svg" xmlns:xlink="http://www.w3.org/1999/xlink" x="0px" y="0px"
	 width="601.543px" height="419.616px" viewBox="-3.558 -2.381 601.543 419.616"
	 enable-background="new -3.558 -2.381 601.543 419.616" xml:space="preserve">
<path fill="none" stroke="#FFFFFF" stroke-width="20" stroke-miterlimit="10" d="M394.599,287.977
	c11.162-8.763,28.919-57.812,40.429-66.103c8.941-6.441,19.16-8.048,29.748-4.633c18.147,5.853,56.436,14.931,75.525,15.817
	c7.507,0.349,15.185,0.261,22.455,1.867c15.583,3.443,25.047,15.956,25.179,31.925c0.098,11.911,0.02,59.426,0.02,71.338
	c0.001,11.551,0.028,23.102-0.006,34.653c-0.06,20.019-14.278,34.683-34.152,34.39c-387.733,0-508.414-202.653-508.414-202.653
	c-16.727-33.137-28.649-67.987-33.766-104.832C9.031,81.127,7.21,62.321,6.478,43.543C5.615,21.379,19.999,7.648,42.221,7.642
	c22.927-0.006,98.537-0.057,121.464,0.018c15.879,0.053,28.55,9.519,32.3,24.821c1.431,5.838,1.473,12.087,1.604,18.16
	c0.441,20.417,4.518,40.148,10.512,59.578c3.836,12.433,1.379,23.345-7.012,33.598c-10.908,13.326-21.048,27.289-31.207,41.205
	c-1.038,1.422-0.688,4.787,0.264,6.596C170.146,191.618,277.354,333.37,394.599,287.977z"/>
</svg>
