<?xml version="1.0" encoding="utf-8"?>
<!-- Generator: Adobe Illustrator 17.0.0, SVG Export Plug-In . SVG Version: 6.00 Build 0)  -->
<!DOCTYPE svg PUBLIC "-//W3C//DTD SVG 1.1//EN" "http://www.w3.org/Graphics/SVG/1.1/DTD/svg11.dtd">
<svg version="1.1" id="圖層_1" xmlns="http://www.w3.org/2000/svg" xmlns:xlink="http://www.w3.org/1999/xlink" x="0px" y="0px"
	 width="601.543px" height="419.616px" viewBox="-3.558 -2.381 601.543 419.616"
	 enable-background="new -3.558 -2.381 601.543 419.616" xml:space="preserve">
<path fill="none" stroke="#FFFFFF" stroke-width="20" stroke-miterlimit="10" d="M496.986,372.841
	c-0.06,20.019-14.278,34.683-34.152,34.39c-80.039-1.177-152.654-24.771-217.068-72.658
	c-46.693-34.713-83.217-78.079-109.42-129.994c-16.727-33.137-28.649-67.987-33.766-104.832
	c-2.586-18.619-4.407-37.425-5.139-56.203C96.578,21.38,110.962,7.649,133.184,7.643c22.927-0.006,45.856-0.057,68.783,0.018
	c15.879,0.053,28.55,9.519,32.3,24.821c1.431,5.838,1.473,12.087,1.604,18.16c0.441,20.417,4.518,40.148,10.512,59.578
	c3.836,12.433,1.379,23.345-7.012,33.598c-10.908,13.326-21.048,27.289-31.207,41.205c-1.038,1.422-0.688,4.787,0.264,6.596
	c22.051,41.881,53.251,75.087,94.354,98.821c14.428,8.332,14.352,8.272,27.285-1.881c11.162-8.763,22.298-17.58,33.808-25.871
	c8.941-6.441,19.16-8.048,29.748-4.633c18.147,5.853,36.626,9.719,55.715,10.605c7.507,0.349,15.185,0.261,22.455,1.867
	c15.583,3.443,25.047,15.956,25.179,31.925c0.098,11.911,0.02,23.824,0.02,35.736C496.993,349.739,497.02,361.29,496.986,372.841z"
	/>
</svg>
