<?xml version="1.0" encoding="utf-8"?>
<!-- Generator: Adobe Illustrator 16.0.0, SVG Export Plug-In . SVG Version: 6.00 Build 0)  -->
<!DOCTYPE svg PUBLIC "-//W3C//DTD SVG 1.1//EN" "http://www.w3.org/Graphics/SVG/1.1/DTD/svg11.dtd">
<svg version="1.1" id="圖層_1" xmlns="http://www.w3.org/2000/svg" xmlns:xlink="http://www.w3.org/1999/xlink" x="0px" y="0px"
	 width="80px" height="80px" viewBox="0 0 80 80" enable-background="new 0 0 80 80" xml:space="preserve">
<g>
	<g>
		<path fill="#704132" d="M65.5,64.264c-0.82,0-1.486-0.666-1.486-1.486c0-0.821,0.666-1.487,1.486-1.487
			c6.355,0,11.525-5.379,11.525-11.988c0-6.61-5.17-11.988-11.525-11.988H1.488C0.667,37.313,0,36.646,0,35.825
			c0-0.822,0.666-1.487,1.487-1.487H65.5c7.996,0,14.5,6.712,14.5,14.963C80,57.551,73.496,64.264,65.5,64.264z"/>
	</g>
	<g>
		<path fill="#704132" d="M1.488,37.313c-0.38,0-0.761-0.146-1.051-0.436c-0.581-0.581-0.581-1.522,0-2.103l18.602-18.601
			c0.581-0.581,1.522-0.581,2.103,0s0.581,1.522,0,2.103L2.539,36.877C2.249,37.167,1.868,37.313,1.488,37.313z"/>
	</g>
	<g>
		<path fill="#704132" d="M20.089,55.915c-0.38,0-0.761-0.146-1.051-0.437L0.437,36.878c-0.581-0.581-0.581-1.522,0-2.103
			s1.522-0.581,2.103,0l18.602,18.602c0.581,0.581,0.581,1.521,0,2.104C20.851,55.771,20.47,55.915,20.089,55.915z"/>
	</g>
</g>
</svg>
