<?xml version="1.0" encoding="utf-8"?>
<!-- Generator: Adobe Illustrator 16.0.0, SVG Export Plug-In . SVG Version: 6.00 Build 0)  -->
<!DOCTYPE svg PUBLIC "-//W3C//DTD SVG 1.1//EN" "http://www.w3.org/Graphics/SVG/1.1/DTD/svg11.dtd">
<svg version="1.1" id="圖層_1" xmlns="http://www.w3.org/2000/svg" xmlns:xlink="http://www.w3.org/1999/xlink" x="0px" y="0px"
	 width="80px" height="80px" viewBox="0 0 80 80" enable-background="new 0 0 80 80" xml:space="preserve">
<g>
	<g>
		<path fill="#704132" d="M40,79.997C17.945,79.997,0.003,62.055,0.003,40S17.945,0.003,40,0.003S79.997,17.945,79.997,40
			S62.055,79.997,40,79.997z M40,3.01C19.604,3.01,3.01,19.604,3.01,40S19.604,76.99,40,76.99S76.99,60.396,76.99,40
			S60.396,3.01,40,3.01z"/>
	</g>
	<g>
		<g>
			<path fill="#704132" d="M40.561,24.235c-18.772,0-31.938-7.479-32.133-7.592l1.512-2.599c0.276,0.161,28.12,15.917,60.216,0.281
				l1.317,2.704C60.399,22.422,49.799,24.235,40.561,24.235z"/>
		</g>
		<g>
			<path fill="#704132" d="M9.941,65.955l-1.513-2.598c0.291-0.17,29.469-16.742,63.045-0.386l-1.317,2.703
				C38.007,50.014,10.217,65.794,9.941,65.955z"/>
		</g>
	</g>
	<g>
		<rect x="1.507" y="38.497" fill="#704132" width="76.986" height="3.007"/>
	</g>
	<g>
		<rect x="38.497" y="1.507" fill="#704132" width="3.007" height="76.986"/>
	</g>
	<g>
		<path fill="#704132" d="M40,79.997c-12.712,0-23.054-17.942-23.054-39.997S27.288,0.003,40,0.003
			c12.712,0,23.054,17.942,23.054,39.997S52.712,79.997,40,79.997z M40,3.01C28.946,3.01,19.953,19.604,19.953,40
			S28.946,76.99,40,76.99c11.054,0,20.047-16.594,20.047-36.99S51.054,3.01,40,3.01z"/>
	</g>
</g>
</svg>
