<?xml version="1.0" encoding="utf-8"?>
<!-- Generator: Adobe Illustrator 17.0.0, SVG Export Plug-In . SVG Version: 6.00 Build 0)  -->
<!DOCTYPE svg PUBLIC "-//W3C//DTD SVG 1.1//EN" "http://www.w3.org/Graphics/SVG/1.1/DTD/svg11.dtd">
<svg version="1.1" id="圖層_1" xmlns="http://www.w3.org/2000/svg" xmlns:xlink="http://www.w3.org/1999/xlink" x="0px" y="0px"
	 width="594.426px" height="595.28px" viewBox="0 0 594.426 595.28" enable-background="new 0 0 594.426 595.28"
	 xml:space="preserve">
<path fill="#FFFFFF" d="M297.426,0.64c-164.029,0-297,132.971-297,297s132.971,297,297,297s297-132.971,297-297
	S461.455,0.64,297.426,0.64z M481.823,450.362c-0.055,18.483-13.179,32.022-31.524,31.752
	c-73.879-1.087-140.905-22.871-200.361-67.084c-43.1-32.05-76.812-72.089-100.998-120.021
	c-15.439-30.595-26.444-62.771-31.167-96.789c-2.387-17.191-4.067-34.554-4.743-51.891c-0.798-20.464,12.479-33.141,32.991-33.147
	c21.163-0.006,42.326-0.053,63.489,0.017c14.657,0.049,26.352,8.789,29.814,22.917c1.321,5.39,1.36,11.16,1.481,16.767
	c0.407,18.851,4.17,37.068,9.703,55.007c3.541,11.479,1.273,21.554-6.472,31.02c-10.068,12.304-19.428,25.195-28.805,38.044
	c-0.958,1.313-0.635,4.42,0.244,6.09c20.354,38.668,49.153,69.326,87.092,91.24c13.318,7.693,13.247,7.637,25.185-1.737
	c10.303-8.091,20.582-16.231,31.206-23.886c8.253-5.947,17.685-7.431,27.458-4.278c16.75,5.404,33.807,8.973,51.427,9.791
	c6.93,0.322,14.016,0.241,20.726,1.724c14.384,3.179,23.12,14.732,23.241,29.476c0.09,10.997,0.018,21.996,0.018,32.994
	C481.829,429.033,481.855,439.698,481.823,450.362z"/>
</svg>
